# xmcd CD Database Entry
#
# Track frame offsets:
# 150
# 17247
# 34583
# 51932
# 68772
# 87095
# 103253
# 116367
# 133075
# 146573
# 160416
#
# Disc length: 2348 seconds
#
# Revision: 2
# Processed by: cddbd v1.4PL0 Copyright (c) Steve Scherf et al.
# Submitted via: tcd 2.0b
#
DISCID=95092a0b
DTITLE=Carlos Cuevas - La Diferencia
DYEAR=1900
DGENRE=
TTITLE0=Sé que te amo
TTITLE1=Peleas 
TTITLE2=Me acostumbre
TTITLE3=Ratos felices
TTITLE4=Con sabor a clavo
TTITLE5=Hoy viernes
TTITLE6=No sé que está pasando
TTITLE7=Para ya
TTITLE8=La enorme diferencia
TTITLE9=Y entonces
TTITLE10=Todos los caminos
EXTD=
EXTT0=
EXTT1=
EXTT2=
EXTT3=
EXTT4=
EXTT5=
EXTT6=
EXTT7=
EXTT8=
EXTT9=
EXTT10=
PLAYORDER=
